<svg height="480pt" viewBox="0 0 480.01445 480" width="480pt" xmlns="http://www.w3.org/2000/svg" xmlns:xlink="http://www.w3.org/1999/xlink"><linearGradient id="a"><stop offset="0" stop-color="#7ed4ef"/><stop offset=".229" stop-color="#66bfe6"/><stop offset=".711" stop-color="#298bd0"/><stop offset="1" stop-color="#0169c2"/></linearGradient><linearGradient id="b" gradientUnits="userSpaceOnUse" x1="-24" x2="490.248" xlink:href="#a" y1="240.007225" y2="240.007225"/><linearGradient id="c" gradientUnits="userSpaceOnUse" x1="-24" x2="490.248" xlink:href="#a" y1="152.007225" y2="152.007225"/><linearGradient id="d" gradientUnits="userSpaceOnUse" x1="-24" x2="490.248" xlink:href="#a" y1="208.007225" y2="208.007225"/><linearGradient id="e" gradientUnits="userSpaceOnUse" x1="-24" x2="490.248" xlink:href="#a" y1="184.007225" y2="184.007225"/><linearGradient id="f" gradientUnits="userSpaceOnUse" x1="-24" x2="490.248" xlink:href="#a" y1="424.007225" y2="424.007225"/><path d="m376 48.007812c-52.761719-.035156-97.179688 39.460938-103.308594 91.863282-6.132812 52.402344 27.964844 101.085937 79.308594 113.230468v26.90625h-8c-4.417969 0-8 3.582032-8 8v64c0 4.417969 3.582031 8 8 8h8v16h-48v-16h-16v16h-32v-368c0-4.417968-3.582031-7.9999995-8-7.9999995h-112c-4.417969 0-8 3.5820315-8 7.9999995v184h-24c-4.417969 0-8 3.582032-8 8v8h-48v-16c0-13.253906-10.746094-24-24-24s-24 10.746094-24 24v80c0 13.253907 10.746094 24 24 24s24-10.746093 24-24v-16h48v8c0 4.417969 3.582031 8 8 8h24v200c0 4.417969 3.582031 8 8 8h112c4.417969 0 8-3.582031 8-8v-48h32v16h16v-16h56c22.082031-.027343 39.972656-17.921874 40-40v-24h8c4.417969 0 8-3.582031 8-8v-24h16v16h16v-48h-16v16h-16v-24c0-4.417968-3.582031-8-8-8h-8v-26.90625c51.34375-12.144531 85.441406-60.828124 79.308594-113.230468-6.128906-52.402344-50.546875-91.898438-103.308594-91.863282zm83.785156 77.167969-14.554687 7.269531c-3.667969-12.90625-10.875-24.527343-20.796875-33.558593l11.308594-11.3125c11.105468 10.265625 19.382812 23.214843 24.042968 37.601562zm4.214844 26.832031c-.015625 9.742188-1.664062 19.414063-4.871094 28.617188l-14.402344-7.203125c2.167969-6.929687 3.273438-14.152344 3.273438-21.414063 0-1.007812-.113281-1.984374-.152344-2.976562l15.433594-7.71875c.457031 3.546875.699219 7.117188.71875 10.695312zm-123.34375-62.65625-11.632812-11.632812c11.746093-7.480469 25.109374-12.042969 38.976562-13.304688v16.066407c-9.621094 1.070312-18.925781 4.089843-27.34375 8.871093zm43.34375-8.871093v-16.066407c13.867188 1.261719 27.230469 5.824219 38.976562 13.304688l-11.632812 11.632812c-8.417969-4.78125-17.722656-7.800781-27.34375-8.871093zm-67.742188 7.09375 11.308594 11.3125c-7.519531 6.835937-13.515625 15.179687-17.597656 24.488281l-14.871094-5.945312c4.894532-11.316407 12.101563-21.484376 21.160156-29.855469zm-28.257812 64.433593c.015625-6.496093.753906-12.972656 2.199219-19.304687l15.082031 6.03125c-2.234375 11.546875-1.535156 23.46875 2.03125 34.671875l-14.402344 7.199219c-3.21875-9.191407-4.878906-18.859375-4.910156-28.597657zm-48-8h-96v-16h96zm-96 16h96v144h-96zm0 160h96v16h-96zm0-304h16v72h16v-72h64v96h-96zm-112 256c0 4.417969-3.582031 8-8 8s-8-3.582031-8-8v-80c0-4.417968 3.582031-8 8-8s8 3.582032 8 8zm16-32v-16h48v16zm64 16v-48h16v48zm128 208h-96v-112h96zm16-72h32v16h-32zm128-8c0 13.253907-10.746094 24-24 24h-56v-16h48c8.835938 0 16-7.164062 16-16v-16h16zm16-40h-48v-48h48zm-16-64h-16v-24.410156c2.648438.210938 5.296875.410156 8 .410156s5.351562-.199218 8-.410156zm-8-40c-31.730469-.039062-60.984375-17.15625-76.558594-44.800781l14.277344-7.136719c3.882812 6.726563 8.835938 12.773438 14.65625 17.914063l10.59375-12c-17.472656-15.402344-23.585938-40.011719-15.355469-61.800781 8.234375-21.789063 29.09375-36.207032 52.386719-36.207032s44.152344 14.417969 52.386719 36.207032c8.230469 21.789062 2.117187 46.398437-15.355469 61.800781l10.59375 12c5.820312-5.140625 10.773438-11.1875 14.65625-17.914063l14.277344 7.136719c-15.574219 27.644531-44.828125 44.761719-76.558594 44.800781zm0 0" fill="url(#b)"/><path d="m413.65625 125.664062-11.3125-11.3125-16.0625 16.054688c-3.203125-1.566406-6.71875-2.386719-10.28125-2.398438-13.253906 0-24 10.746094-24 24 .015625 3.5625.835938 7.078126 2.398438 10.28125l-16.0625 16.0625 11.3125 11.3125 16.070312-16.058593c3.203125 1.566406 6.71875 2.386719 10.28125 2.402343 13.253906 0 24-10.746093 24-24-.015625-3.566406-.835938-7.078124-2.398438-10.28125zm-37.65625 34.34375c-4.417969 0-8-3.582031-8-8 0-4.417968 3.582031-8 8-8s8 3.582032 8 8c0 4.417969-3.582031 8-8 8zm0 0" fill="url(#c)"/><path d="m368 200.007812h16v16h-16zm0 0" fill="url(#d)"/><path d="m160 176.007812h16v16h-16zm0 0" fill="url(#e)"/><path d="m176 400.007812h-16v48h32v-16h-16zm0 0" fill="url(#f)"/></svg>