<svg height="464pt" viewBox="0 0 464.00069 464" width="464pt" xmlns="http://www.w3.org/2000/svg"><path d="m128 0h112v112h-112zm0 0" fill="#87cee9"/><path d="m352 232h32v48h-32zm0 0" fill="#195c85"/><path d="m336 280h64v64h-64zm0 0" fill="#50b3c9"/><path d="m400 304h32v16h-32zm0 0" fill="#aabece"/><path d="m424 288h16v48h-16zm0 0" fill="#ffd782"/><path d="m240 376h48v32h-48zm0 0" fill="#195c85"/><path d="m352 344v24c0 4.417969-3.582031 8-8 8h-56v32h64c17.671875 0 32-14.328125 32-32v-32zm0 0" fill="#195c85"/><path d="m280 352h16v80h-16zm0 0" fill="#50b3c9"/><path d="m16 168c8.835938 0 16 7.164062 16 16v80c0 8.835938-7.164062 16-16 16s-16-7.164062-16-16v-80c0-8.835938 7.164062-16 16-16zm0 0" fill="#dd3e46"/><path d="m32 208h64v32h-64zm0 0" fill="#aabece"/><path d="m96 192h32v64h-32zm0 0" fill="#7d8d9c"/><path d="m128 144h112v160h-112zm0 0" fill="#87cee9"/><path d="m128 112h112v32h-112zm0 0" fill="#2d75bb"/><path d="m240 464h-112v-128h112zm0 0" fill="#87cee9"/><path d="m240 336h-112v-32h112zm0 0" fill="#2d75bb"/><g fill="#cdeef6"><path d="m152 0h16v80h-16zm0 0"/><path d="m152 168h16v16h-16zm0 0"/><path d="m184 440h-32v-48h16v32h16zm0 0"/></g><path d="m464 144c.042969 10.992188-1.851562 21.90625-5.601562 32.242188-1.722657 5.070312-3.921876 9.972656-6.558594 14.636718-17.003906 30.335938-49.066406 49.121094-83.839844 49.121094s-66.835938-18.785156-83.839844-49.121094c-2.636718-4.664062-4.835937-9.566406-6.558594-14.636718-6.273437-17.511719-7.300781-36.472657-2.960937-54.5625 1.191406-5.230469 2.851563-10.34375 4.960937-15.28125 7.378907-17.378907 19.738282-32.1875 35.519532-42.558594 13.40625-8.886719 28.847656-14.226563 44.878906-15.519532 2.640625-.238281 5.28125-.320312 8-.320312s5.359375.082031 8 .320312c16.003906 1.308594 31.417969 6.648438 44.800781 15.519532 4.527344 2.921875 8.785157 6.242187 12.71875 9.921875 11.644531 10.953125 20.410157 24.609375 25.519531 39.757812 1.777344 5.175781 3.0625 10.503907 3.839844 15.921875.742188 4.816406 1.117188 9.683594 1.121094 14.558594zm0 0" fill="#ffd782"/><path d="m330.347656 170.339844 24.003906-24.003906 11.3125 11.3125-24 24.003906zm0 0" fill="#5a6470"/><path d="m370.347656 130.34375 24.003906-24 11.3125 11.3125-24 24.003906zm0 0" fill="#5a6470"/><path d="m360 192h16v16h-16zm0 0" fill="#fcf05a"/><path d="m436.71875 165.359375 21.679688 10.882813-6.558594 14.636718-21.519532-10.796875c-3.925781 6.714844-8.894531 12.761719-14.71875 17.917969l-10.5625-12c17.46875-15.40625 23.578126-40.011719 15.34375-61.796875-8.234374-21.789063-29.09375-36.203125-52.382812-36.203125s-44.148438 14.414062-52.382812 36.203125c-8.234376 21.785156-2.125 46.390625 15.34375 61.796875l-10.5625 12c-5.824219-5.15625-10.792969-11.203125-14.71875-17.917969l-21.519532 10.796875c-2.636718-4.664062-4.835937-9.566406-6.558594-14.636718l21.679688-10.882813c-3.542969-11.199219-4.230469-23.105469-2-34.640625l-22.640625-9.039062c1.191406-5.230469 2.851563-10.34375 4.960937-15.28125l22.398438 8.960937c4.058594-9.316406 10.058594-17.664063 17.601562-24.480469l-17.121093-17.117187c3.929687-3.65625 8.15625-6.972657 12.640625-9.921875l17.519531 17.519531c8.417969-4.792969 17.730469-7.8125 27.359375-8.878906v-24.160157c2.640625-.238281 5.28125-.320312 8-.320312s5.359375.082031 8 .320312v24.160157c9.628906 1.066406 18.941406 4.085937 27.359375 8.878906l17.441406-17.519531 12.71875 9.921875-17.121093 17.117187c9.953124 9.023438 17.164062 20.667969 20.800781 33.601563l21.839843-10.960938 3.839844 15.921875-23.039062 11.597656c.082031.960938.160156 1.921876.160156 2.960938-.027344 7.242188-1.132812 14.441406-3.28125 21.359375zm0 0" fill="#dd3e46"/><path d="m384 144c0 8.835938-7.164062 16-16 16s-16-7.164062-16-16 7.164062-16 16-16 16 7.164062 16 16zm0 0" fill="#e97424"/></svg>