<svg height="512pt" viewBox="-66 0 512 512" width="512pt" xmlns="http://www.w3.org/2000/svg"><path d="m364.246094 512h-349.246094c-8.285156 0-15-6.714844-15-15v-482c0-8.285156 6.714844-15 15-15h239.414062c3.976563 0 7.792969 1.582031 10.605469 4.394531l109.832031 109.832031c2.8125 2.8125 4.394532 6.628907 4.394532 10.605469v372.167969c0 8.285156-6.714844 15-15 15zm0 0" fill="#dfeefa"/><path d="m265.023438 4.394531c-2.816407-2.8125-6.628907-4.394531-10.609376-4.394531h-64.789062v512h174.621094c8.285156 0 15-6.714844 15-15v-372.167969c0-3.976562-1.582032-7.792969-4.394532-10.605469zm0 0" fill="#c9dff7"/><path d="m374.851562 114.226562-109.828124-109.832031c-2.816407-2.8125-6.628907-4.394531-10.609376-4.394531v109.832031c0 8.285157 6.714844 15 15 15h109.832032c0-3.976562-1.578125-7.792969-4.394532-10.605469zm0 0" fill="#91b6e3"/><g fill="#7e9bcc"><path d="m289.246094 412.328125h-199.246094c-8.285156 0-15-6.714844-15-15s6.714844-15 15-15h199.246094c8.285156 0 15 6.714844 15 15s-6.714844 15-15 15zm0 0"/><path d="m289.246094 352.328125h-199.246094c-8.285156 0-15-6.71875-15-15 0-8.285156 6.714844-15 15-15h199.246094c8.285156 0 15 6.714844 15 15 0 8.28125-6.714844 15-15 15zm0 0"/><path d="m289.246094 292.328125h-199.246094c-8.285156 0-15-6.71875-15-15 0-8.285156 6.714844-15 15-15h199.246094c8.285156 0 15 6.714844 15 15 0 8.28125-6.714844 15-15 15zm0 0"/></g><path d="m289.246094 382.328125h-99.621094v30h99.621094c8.285156 0 15-6.714844 15-15s-6.714844-15-15-15zm0 0" fill="#416191"/><path d="m289.246094 322.328125h-99.621094v30h99.621094c8.285156 0 15-6.71875 15-15 0-8.285156-6.714844-15-15-15zm0 0" fill="#416191"/><path d="m289.246094 262.328125h-99.621094v30h99.621094c8.285156 0 15-6.71875 15-15 0-8.285156-6.714844-15-15-15zm0 0" fill="#416191"/><path d="m162.378906 232.328125h-72.378906c-8.28125 0-15-6.71875-15-15 0-8.285156 6.71875-15 15-15h72.378906c8.285156 0 15 6.714844 15 15 0 8.28125-6.714844 15-15 15zm0 0" fill="#7e9bcc"/></svg>