<svg id="Layer_3" enable-background="new 0 0 64 64" height="512" viewBox="0 0 64 64" width="512" xmlns="http://www.w3.org/2000/svg"><path d="m6 34h46v24h-46z" fill="#96836b"/><path d="m40 38h8v14h-8z" fill="#7194a3"/><path d="m40 38h4v14h-4z" fill="#96c5da"/><path d="m46 2c12.911 0 20.486 14.229 13.099 24.604l-13.099 17.396-13.099-17.396c-7.387-10.375.188-24.604 13.099-24.604z" fill="#e0747c"/><path d="m32.901 26.604c-1.491-2.094-2.363-4.345-2.714-6.604h-16.187l-10 10h31.458z" fill="#96836b"/><path d="m25.729 20h-11.729l-10 10h27l-2.557-3.396c-1.491-2.094-2.363-4.345-2.714-6.604z" fill="#c8af8f"/><path d="m4 58h50v4h-50z" fill="#baae9b"/><path d="m4 58h47v4h-47z" fill="#f8e8ce"/><path d="m22 44h14v14h-14z" fill="#96c5da"/><path d="m10 38h8v14h-8z" fill="#7194a3"/><path d="m10 38h4v14h-4z" fill="#96c5da"/><path d="m35.458 30h-33.458v4h36.47z" fill="#baae9b"/><path d="m2 30v4h31.47l-3.012-4z" fill="#f8e8ce"/><circle cx="46" cy="18" fill="#baae9b" r="10"/><ellipse cx="44.5" cy="18" fill="#f8e8ce" rx="8.5" ry="9.875"/><g fill="#e0747c"><path d="m42 13h2v10h-2z"/><path d="m48 13h2v10h-2z"/><path d="m43 17h6v2h-6z"/></g></svg>