<svg height="512" viewBox="0 0 64 64" width="512" xmlns="http://www.w3.org/2000/svg"><path d="m52 35v6a20 20 0 0 1 -40 0v-6z" fill="#ffbcab"/><path d="m54 27a21.969 21.969 0 0 0 -17-21.42v-.58a2 2 0 0 0 -2-2h-6a2 2 0 0 0 -2 2v.58a21.988 21.988 0 0 0 -17 21.42 4 4 0 0 0 -4 4v2a2 2 0 0 0 2 2h48a2 2 0 0 0 2-2v-2a4 4 0 0 0 -4-4z" fill="#ffcd00"/><path d="m54 27a21.969 21.969 0 0 0 -17-21.42v-.58a2 2 0 0 0 -2-2h-6a2 2 0 0 0 -2 2v.58a21.988 21.988 0 0 0 -17 21.42 4 4 0 0 0 -4 4v2a2 2 0 0 0 2 2h48a2 2 0 0 0 2-2v-2a4 4 0 0 0 -4-4z" fill="#ffcd00"/><path d="m52 41a4 4 0 0 0 4-4v-2h-4z" fill="#ff9478"/><path d="m8 35v2a4 4 0 0 0 4 4v-6z" fill="#ff9478"/><circle cx="41" cy="38" fill="#ffb655" r="1"/><circle cx="23" cy="38" fill="#ffb655" r="1"/><path d="m32 43a8 8 0 0 0 -8 8h16a8 8 0 0 0 -8-8z" fill="#754c29"/><path d="m32 45a3 3 0 0 0 3-3v-7h-6v7a3 3 0 0 0 3 3z" fill="#ff9478"/><path d="m35 3h-6a2 2 0 0 0 -2 2h10a2 2 0 0 0 -2-2z" fill="#ffcd00"/><path d="m16 11.9a21.923 21.923 0 0 0 -6 15.1 4 4 0 0 0 -4 4v2a2 2 0 0 0 2 2h48a2 2 0 0 0 2-2v-2h-36a6 6 0 0 1 -6-6z" fill="#ebbf00"/><g fill="#cca400"><path d="m45 27h-8a1 1 0 0 0 -1 1v1a1 1 0 0 1 -1 1h-6a1 1 0 0 1 -1-1v-1a1 1 0 0 0 -1-1h-8a1 1 0 0 0 0 2h7a3 3 0 0 0 3 3h6a3 3 0 0 0 3-3h7a1 1 0 0 0 0-2z"/><path d="m41 18a1 1 0 0 0 1-1v-6a1 1 0 0 0 -2 0v6a1 1 0 0 0 1 1z"/><path d="m35 2h-6a3 3 0 0 0 -3 3v15a1 1 0 0 0 2 0v-15a1 1 0 0 1 1-1h6a1 1 0 0 1 1 1v15a1 1 0 0 0 2 0v-15a3 3 0 0 0 -3-3z"/><path d="m23 18a1 1 0 0 0 1-1v-6a1 1 0 0 0 -2 0v6a1 1 0 0 0 1 1z"/><path d="m50 27h-1a1 1 0 0 0 0 2h1a1 1 0 0 0 0-2z"/><path d="m15 27h-1a1 1 0 0 0 0 2h1a1 1 0 0 0 0-2z"/></g><circle cx="41" cy="38" fill="#603913" r="2"/><circle cx="23" cy="38" fill="#603913" r="2"/></svg>