<svg height="512" viewBox="0 0 64 64" width="512" xmlns="http://www.w3.org/2000/svg" xmlns:xlink="http://www.w3.org/1999/xlink"><linearGradient id="linear-gradient" gradientUnits="userSpaceOnUse" x1="-4" x2="63.03" y1="62" y2="-5.03"><stop offset="0" stop-color="#003f8a"/><stop offset=".518" stop-color="#00d7df"/><stop offset="1" stop-color="#006df0"/></linearGradient><linearGradient id="linear-gradient-2" x1="-5" x2="62.03" xlink:href="#linear-gradient" y1="61" y2="-6.03"/><linearGradient id="linear-gradient-3" x1="-13" x2="54.03" xlink:href="#linear-gradient" y1="53" y2="-14.03"/><linearGradient id="linear-gradient-4" x1="5.25" x2="72.28" xlink:href="#linear-gradient" y1="71.25" y2="4.22"/><linearGradient id="linear-gradient-5" x1="2.75" x2="69.78" xlink:href="#linear-gradient" y1="68.75" y2="1.72"/><linearGradient id="linear-gradient-6" x1="6.25" x2="73.28" xlink:href="#linear-gradient" y1="72.25" y2="5.22"/><path d="m18 34h28a3 3 0 0 0 3-3v-5a3 3 0 0 0 -3-3v-1h4a3 3 0 0 0 3-3v-1a3 3 0 0 0 -3-3h-11v-1h1a3 3 0 0 0 3-3v-1a3 3 0 0 0 -3-3h-11a3 3 0 0 0 -3 3v1a3 3 0 0 0 3 3h5v1a3 3 0 0 0 -3 3v1a3 3 0 0 0 3 3h7v1h-23a3 3 0 0 0 -3 3v5a3 3 0 0 0 3 3zm-1-8a1 1 0 0 1 1-1h24a1 1 0 0 0 1-1v-3a1 1 0 0 0 -1-1h-8a1 1 0 0 1 -1-1v-1a1 1 0 0 1 1-1h1a1 1 0 0 0 1-1v-3a1 1 0 0 0 -1-1h-6a1 1 0 0 1 -1-1v-1a1 1 0 0 1 1-1h11a1 1 0 0 1 1 1v1a1 1 0 0 1 -1 1h-2a1 1 0 0 0 -1 1v3a1 1 0 0 0 1 1h12a1 1 0 0 1 1 1v1a1 1 0 0 1 -1 1h-5a1 1 0 0 0 -1 1v3a1 1 0 0 0 1 1h1a1 1 0 0 1 1 1v5a1 1 0 0 1 -1 1h-28a1 1 0 0 1 -1-1z" fill="url(#linear-gradient)"/><path d="m47 11h3a2 2 0 0 0 2-2v-3a2 2 0 0 0 -2-2h-3a2 2 0 0 0 -2 2v3a2 2 0 0 0 2 2zm0-5h3v3h-3z" fill="url(#linear-gradient-2)"/><path d="m8 34h3a2 2 0 0 0 2-2v-3a2 2 0 0 0 -2-2h-3a2 2 0 0 0 -2 2v3a2 2 0 0 0 2 2zm0-5h3v3h-3z" fill="url(#linear-gradient-3)"/><path d="m62 48h-7a1 1 0 0 0 -1-1h-3v-1a1 1 0 0 0 -1-1h-6a1 1 0 0 0 -1 1v1h-28v-1h1a1 1 0 0 0 1-1v-3a1 1 0 0 0 -1-1h-1v-1h1a1 1 0 0 0 1-1v-3a1 1 0 0 0 -1-1h-14a1 1 0 0 0 -1 1v3a1 1 0 0 0 1 1h1v1h-1a1 1 0 0 0 -1 1v3a1 1 0 0 0 1 1h1v8a3 3 0 0 0 3 3h6a3 3 0 0 0 2.816-2h28.184v1a1 1 0 0 0 1 1h6a1 1 0 0 0 1-1v-1h3a1 1 0 0 0 1-1h7a1 1 0 0 0 1-1v-4a1 1 0 0 0 -1-1zm-59-11h12v1h-12zm2 3h8v1h-8zm-2 3h12v1h-12zm9 12h-6a1 1 0 0 1 -1-1v-1h2a1 1 0 0 0 0-2h-2v-5h8v8a1 1 0 0 1 -1 1zm3-2v-4h28v4zm34 2h-4v-8h4zm2-2v-4h2v4zm10-1h-6v-2h6z" fill="url(#linear-gradient-4)"/><path d="m24 50h-7a1 1 0 0 0 0 2h7a1 1 0 0 0 0-2z" fill="url(#linear-gradient-5)"/><path d="m28 50h-1a1 1 0 0 0 0 2h1a1 1 0 0 0 0-2z" fill="url(#linear-gradient-6)"/></svg>