<svg id="Layer_1" enable-background="new 0 0 512 512" height="512" viewBox="0 0 512 512" width="512" xmlns="http://www.w3.org/2000/svg"><path d="m505.323 131.054-120.503-80.335c-5.039-3.358-11.602-3.358-16.641 0l-112.179 74.786-112.18-74.786c-5.039-3.358-11.602-3.358-16.641 0l-56.236 37.491-70.943 199.923v106.128l363.141 49.339 13.359-8.906 112.18 74.786c4.603 3.069 10.521 3.355 15.398.745s7.922-7.693 7.922-13.225v-353.467c0-5.014-2.506-9.697-6.677-12.479z" fill="#e7dfdd"/><path d="m368.18 50.719-112.18 74.786-112.18-74.786c-2.168-1.445-4.619-2.265-7.109-2.466v364.583l226.43 30.764 13.359-8.906v-386.494c-2.9 0-5.801.84-8.32 2.519z" fill="#f4f1f1"/><path d="m505.323 131.054-120.503-80.335c-5.039-3.358-11.602-3.358-16.641 0l-112.179 74.786v303.538l107.141 14.557 13.359-8.906 112.18 74.786c4.603 3.069 10.521 3.355 15.398.745s7.922-7.693 7.922-13.225v-353.467c0-5.014-2.506-9.697-6.677-12.479z" fill="#d0c8c3"/><path d="m505.323 131.054-120.503-80.335c-2.52-1.679-5.42-2.519-8.32-2.519v386.494l112.18 74.786c4.603 3.069 10.521 3.355 15.398.745s7.922-7.693 7.922-13.225v-353.467c0-5.014-2.506-9.697-6.677-12.479z" fill="#e7dfdd"/><path d="m376.5 238.867c-5.327 0-10.255-2.825-12.945-7.423l-29.783-50.885c-32.12-16.117-52.604-49.034-52.604-85.225-.001-52.567 42.766-95.334 95.332-95.334s95.333 42.767 95.333 95.333c0 36.193-20.487 69.11-52.604 85.226l-29.784 50.885c-2.69 4.598-7.618 7.423-12.945 7.423z" fill="#ff7d47"/><path d="m7.922 301.358c-4.877-2.61-7.922-7.693-7.922-13.225v-144.6c0-5.015 2.506-9.698 6.679-12.48l64.267-42.85c4.603-3.069 10.523-3.355 15.398-.745 4.878 2.61 7.923 7.693 7.923 13.225v118.805c0 21.187-10.52 40.845-28.14 52.585l-42.807 28.54c-4.61 3.075-10.529 3.351-15.398.745z" fill="#7dd5f4"/><path d="m389.445 231.444 29.784-50.885c32.116-16.115 52.604-49.033 52.604-85.226 0-52.566-42.767-95.333-95.333-95.333v238.867c5.327 0 10.255-2.825 12.945-7.423z" fill="#e14753"/><path d="m376.501 142.467c-25.989 0-47.134-21.144-47.134-47.133s21.144-47.134 47.134-47.134 47.133 21.144 47.133 47.133-21.144 47.134-47.133 47.134z" fill="#e14753"/><path d="m423.633 95.333c0-25.989-21.144-47.133-47.133-47.133v94.267c25.99 0 47.133-21.144 47.133-47.134z" fill="#c1126b"/><path d="m162.985 224.65c-8.27 0-15-6.72-15-14.99v-30c0-8.28 6.73-15.01 15-15.01 8.271 0 15 6.73 15 15.01v30c0 8.27-6.73 14.99-15 14.99z" fill="#005293"/><circle cx="162.985" cy="115.66" fill="#005293" r="15"/><path d="m358.061 309.963c-13.13-8.154-29.621-7.818-42.348.666l-41.286 27.528c-11.19 7.456-25.654 7.456-36.839.004l-67.028-44.694c-21.296-14.185-48.815-14.187-70.119.005l-72.298 48.199c-17.622 11.752-28.143 31.412-28.143 52.591v102.271c0 5.277 2.536 10.346 7.002 13.157 2.455 1.546 5.23 2.31 7.997 2.31 2.91 0 5.812-.846 8.321-2.519l112.18-74.787 112.18 74.787c5.039 3.358 11.602 3.358 16.641 0l98.821-65.881c8.346-5.564 13.359-14.931 13.359-24.961v-74.788c-.001-13.693-6.808-26.665-18.44-33.888z" fill="#00cb75"/><path d="m358.061 309.963c-13.13-8.154-29.621-7.818-42.348.666l-41.286 27.528c-11.19 7.456-25.654 7.456-36.839.004l-67.028-44.694c-10.297-6.858-22.048-10.391-33.849-10.617v152.651l110.969 73.979c5.039 3.358 11.602 3.358 16.641 0l98.821-65.881c8.346-5.564 13.359-14.931 13.359-24.961v-74.788c-.001-13.692-6.808-26.664-18.44-33.887z" fill="#bee75e"/><path d="m376.5 343.851c0-13.692-6.807-26.664-18.44-33.888-13.13-8.154-29.621-7.818-42.348.666l-41.286 27.528c-5.597 3.729-12.012 5.593-18.427 5.592v168.251c2.9 0 5.801-.84 8.32-2.519l98.821-65.881c8.346-5.564 13.359-14.931 13.359-24.961v-74.788z" fill="#009884"/><path d="m237.696 257.898-24.961-16.641c-6.889-4.593-16.222-2.727-20.809 4.155-4.587 6.881-2.721 16.214 4.168 20.807l24.961 16.641c6.881 4.588 16.206 2.715 20.793-4.166 4.588-6.881 2.729-16.208-4.152-20.796z" fill="#005293"/><path d="m320.075 245.412c-4.588-6.881-13.92-8.748-20.809-4.155l-24.961 16.641c-6.881 4.588-8.74 13.915-4.152 20.796 4.587 6.881 13.912 8.753 20.793 4.166l24.961-16.641c6.889-4.593 8.755-13.926 4.168-20.807z" fill="#002349"/></svg>