<svg height="512" viewBox="0 0 64 64" width="512" xmlns="http://www.w3.org/2000/svg"><rect fill="#5aaae7" height="36" rx="4" width="58" x="3" y="3"/><path d="m61 57v3a1 1 0 0 1 -1 1h-56a1 1 0 0 1 -1-1v-3z" fill="#ee8700"/><path d="m55 45 6 12h-58l6-12z" fill="#ff9811"/><path d="m61 13v16h-2a2.006 2.006 0 0 1 -2-2v-12a2.006 2.006 0 0 1 2-2z" fill="#ff9811"/><path d="m51 19v20h-2v-22z" fill="#3d9ae2"/><path d="m49 17v2h-8v-10z" fill="#bcbec0"/><path d="m49 19v20h-34v-28a2.006 2.006 0 0 1 2-2h24v10z" fill="#e6e7e8"/><g fill="#cc7400"><path d="m10 52h2v2h-2z"/><path d="m14 52h2v2h-2z"/><path d="m18 52h28v2h-28z"/><path d="m48 52h2v2h-2z"/><path d="m52 52h2v2h-2z"/><path d="m15 48h2v2h-2z"/><path d="m11 48h2v2h-2z"/><path d="m19 48h2v2h-2z"/><path d="m23 48h2v2h-2z"/><path d="m27 48h2v2h-2z"/><path d="m31 48h2v2h-2z"/><path d="m35 48h2v2h-2z"/><path d="m39 48h2v2h-2z"/><path d="m43 48h2v2h-2z"/><path d="m47 48h2v2h-2z"/><path d="m51 48h2v2h-2z"/></g><path d="m20 18h16v2h-16z" fill="#bcbec0"/><path d="m20 14h4v2h-4z" fill="#bcbec0"/><path d="m26 14h6v2h-6z" fill="#bcbec0"/><path d="m20 24h24v2h-24z" fill="#bcbec0"/><path d="m20 28h24v2h-24z" fill="#bcbec0"/><path d="m20 32h24v2h-24z" fill="#bcbec0"/></svg>