<svg id="flat" enable-background="new 0 0 512 512" height="512" viewBox="0 0 512 512" width="512" xmlns="http://www.w3.org/2000/svg"><path d="m40 168h80v128h-80z" fill="#014259"/><path d="m392 168h80v128h-80z" fill="#014259"/><path d="m504 296h-32v-128h16c8.8365479 0 16 7.1634369 16 16z" fill="#aedef8"/><path d="m360 296h32v-128h-16c-8.8365479 0-16 7.1634369-16 16z" fill="#aedef8"/><path d="m416 168v64h16 16v-64z" fill="#ffec00"/><path d="m360 96h144l-8-8v-32l-8-.0000114v-.0000648c0-22.0913468-17.9085693-39.9999238-39.999939-39.9999238h-.0000916l-7.9999694-8h-15.9999695l-8.000061 8h-.0000305c-22.0913697 0-39.999939 17.908577-39.999939 39.9999237v.0000496l-8 .0000153v32.0000114z" fill="#ffec00"/><path d="m504 96h-32l-8-8v-32h-8c0-11.0400391-4.4799805-21.0400391-11.7199707-28.2800293s-17.2400513-11.7199707-28.2800293-11.7199707l8-8h16l8 8c11.0400391 0 21.0400391 4.4799805 28.2800293 11.7199707s11.7199707 17.2399902 11.7199707 28.2800293h8v32z" fill="#fcc200"/><path d="m416 48c-4.418457 0-8-3.581543-8-8v-24c0-4.418457 3.581543-8 8-8s8 3.581543 8 8v24c0 4.418457-3.581543 8-8 8z" fill="#fcc200"/><path d="m448 48c-4.418457 0-8-3.581543-8-8v-24c0-4.418457 3.581543-8 8-8s8 3.581543 8 8v24c0 4.418457-3.581543 8-8 8z" fill="#f98800"/><path d="m496 88-64-24-64 24-8 8h144z" fill="#fcc200"/><path d="m368 88 64-24 64 24z" fill="#fff599"/><path d="m384 96h96v72h-96z" fill="#fac8b2"/><path d="m384 128h-.0000305c-13.2548218 0-23.9999695-10.7451553-23.9999695-23.9999771v-8.0000229h24z" fill="#eaaa94"/><path d="m480 128h.0000305c13.2548218 0 23.9999695-10.7451553 23.9999695-23.9999771v-8.0000229h-24z" fill="#eaaa94"/><path d="m432 136c-2.0473633 0-4.0947266-.78125-5.6567383-2.3432617l-8-8c-3.1245117-3.1240234-3.1245117-8.1894531 0-11.3134766 3.1240234-3.1240234 8.1894531-3.1240234 11.3134766 0l2.3432617 2.3432617 2.3432617-2.3432617c3.1240234-3.1240234 8.1894531-3.1240234 11.3134766 0 3.1245117 3.1240234 3.1245117 8.1894531 0 11.3134766l-8 8c-1.5620117 1.5620117-3.609375 2.3432617-5.6567383 2.3432617z" fill="#f0615f"/><path d="m432 168h16v64h-16z" fill="#f98800"/><path d="m464 96v40c0 8.8365631-7.1634521 16-16 16h-64v16h96v-72z" fill="#eaaa94"/><path d="m216 168h80v128h-80z" fill="#014259"/><path d="m168 96h40v40h-8c-8.7998047 0-16-7.2001953-16-16-4.3999023 0-8.3999023-1.7602539-11.2797852-4.7202148-2.9604492-2.8798829-4.7202148-6.8798829-4.7202148-11.2797852z" fill="#c4d4de"/><path d="m344 96v8c0 8.7998047-7.2001953 16-16 16 0 4.3999023-1.7597656 8.3999023-4.7202148 11.2797852-2.8798829 2.9599609-6.8798829 4.7202148-11.2797852 4.7202148h-8v-40z" fill="#c4d4de"/><path d="m341.8400879 96c-2.7800293 4.7699585-7.9500732 8-13.8400879 8 0 4.3999634-1.7600098 8.3999634-4.7199707 11.2799683-2.8800049 2.9600219-6.8800049 4.7200317-11.2800293 4.7200317h-8v-24z" fill="#efeeef"/><path d="m341.8400879 96c-2.7800293 4.7699585-7.9500732 8-13.8400879 8 0 4.3999634-1.7600098 8.3999634-4.7199707 11.2799683-2.8800049 2.9600219-6.8800049 4.7200317-11.2800293 4.7200317h-8v-24z" fill="#efeeef"/><path d="m170.1599121 96c2.7800293 4.7699585 7.9500732 8 13.8400879 8 0 4.3999634 1.7600098 8.3999634 4.7199707 11.2799683 2.8800049 2.9600219 6.8800049 4.7200317 11.2800293 4.7200317h8v-24z" fill="#efeeef"/><path d="m208 96h96v72h-96z" fill="#fac8b2"/><path d="m328 296h-32v-128h16c8.8365479 0 16 7.1634369 16 16z" fill="#286c84"/><path d="m184 296h32v-128h-16c-8.8365631 0-16 7.1634369-16 16z" fill="#286c84"/><path d="m248 168-8 48 16 16 16-16-8-48z" fill="#ffec00"/><path d="m184 96h144l-8-8v-32l-8-.0000114v-.0000648c0-22.0913468-17.9085693-39.9999238-39.999939-39.9999238h-.0000916l-7.9999694-8h-15.9999695l-8.000061 8h-.0000458c-22.0913544 0-39.9999237 17.908577-39.9999237 39.9999237v.0000496l-8 .0000153v32.0000114z" fill="#ffec00"/><path d="m328 96h-32l-8-8v-32h-8c0-11.0400391-4.4799805-21.0400391-11.7199707-28.2800293s-17.2400513-11.7199707-28.2800293-11.7199707l8-8h16l8 8c11.0400391 0 21.0400391 4.4799805 28.2800293 11.7199707s11.7199707 17.2399902 11.7199707 28.2800293h8v32z" fill="#fcc200"/><path d="m240 48c-4.418457 0-8-3.581543-8-8v-24c0-4.418457 3.581543-8 8-8s8 3.581543 8 8v24c0 4.418457-3.581543 8-8 8z" fill="#fcc200"/><path d="m272 48c-4.418457 0-8-3.581543-8-8v-24c0-4.418457 3.581543-8 8-8s8 3.581543 8 8v24c0 4.418457-3.581543 8-8 8z" fill="#f98800"/><path d="m320 88-64-32-64 32-8 8h144z" fill="#fcc200"/><path d="m232 96v17.8011856c0 10.9209213 10.6991425 18.6324387 21.0596466 15.1789322l2.9403534-.9801178 2.9403687.9801178c10.3604736 3.4535065 21.0596313-4.2580109 21.0596313-15.1789322v-17.8011856h24v72h-96v-72z" fill="#c4d4de"/><path d="m192 88 64-32 64 32z" fill="#fff599"/><path d="m280 96v17.8011856c0 10.9209213-10.6991577 18.6324387-21.0596313 15.1789322l-2.9403687-.9801178-2.9403534.9801178c-10.3605041 3.4535065-21.0596466-4.2580109-21.0596466-15.1789322v-17.8011856h-24v32c0 8.8365631 7.1634369 16 16 16h48c8.8365479 0 16-7.1634369 16-16v-32z" fill="#efeeef"/><path d="m256 168v64l16-16-8-48z" fill="#f98800"/><path d="m240 168v-24.0000153c0-8.8365478 7.1634369-15.9999847 15.9999847-15.9999847h.0000458c8.8365479 0 15.9999695 7.1634369 15.9999695 15.9999847v24.0000153z" fill="#efeeef"/><path d="m272 144v24h-8v-24c0-4.4200439-1.789978-8.4200439-4.6799927-11.3200073-1.9899902-1.9899903-4.5100097-3.4500122-7.3200073-4.1799927 1.2800293-.3300171 2.6199951-.5 4-.5 4.4199829 0 8.4199829 1.789978 11.3200073 4.6799927 2.8900147 2.8999634 4.6799927 6.8999634 4.6799927 11.3200073z" fill="#c4d4de"/><path d="m256 136h-.0000153c-4.4182739 0-7.9999847-3.5817108-7.9999847-7.9999847v-32.0000153h16v32.0000153c0 4.4182739-3.5817261 7.9999847-8 7.9999847z" fill="#f0615f"/><path d="m296 232v32h32v-.0000305c0-17.6730957-14.3268738-31.9999695-31.9999695-31.9999695z" fill="#fac8b2"/><path d="m328 296v208h-56v-112h-32v112h-56v-208z" fill="#683b11"/><path d="m184 232h112v32h-112z" fill="#286c84"/><path d="m184 264h32v32h-32z" fill="#fac8b2" transform="matrix(0 -1 1 0 -80 480)"/><path d="m216 264h112v32h-112z" fill="#286c84"/><path d="m472 232v32h32v-.0000305c0-17.6730957-14.3268738-31.9999695-31.9999695-31.9999695z" fill="#fac8b2"/><path d="m504 296v208h-56v-160h-32v160h-56v-208z" fill="#014259"/><path d="m360 232h112v32h-112z" fill="#aedef8"/><path d="m360 264h32v32h-32z" fill="#fac8b2" transform="matrix(0 -1 1 0 96 656)"/><path d="m392 264h112v32h-112z" fill="#aedef8" transform="matrix(-1 0 0 -1 896 560)"/><path d="m392 168v40l40-40z" fill="#286c84"/><path d="m472 168v40l-40-40z" fill="#286c84"/><path d="m8 296h32v-128h-16c-8.8365564 0-16 7.1634369-16 16z" fill="#aedef8"/><path d="m152 232h-32v-64h16c8.8365631 0 16 7.1634369 16 16z" fill="#aedef8"/><path d="m40 232v32h-32v-.0000305c0-17.6730957 14.3268738-31.9999695 31.9999695-31.9999695z" fill="#fac8b2"/><path d="m8 296v208h56v-144h32v144h56v-208z" fill="#fac8b2"/><path d="m48 96h64v72h-64z" fill="#fac8b2" transform="matrix(-1 0 0 -1 160 264)"/><path d="m40 232h112v32h-112z" fill="#aedef8" transform="matrix(-1 0 0 -1 192 496)"/><path d="m120 264h32v32h-32z" fill="#fac8b2" transform="matrix(0 -1 1 0 -144 416)"/><path d="m8 264h112v32h-112z" fill="#aedef8"/><path d="m80 136c-2.0473633 0-4.0947266-.78125-5.6567383-2.3432617l-8-8c-3.1245117-3.1240234-3.1245117-8.1894531 0-11.3134766 3.1240234-3.1240234 8.1894531-3.1240234 11.3134766 0l2.3432617 2.3432617 2.3432617-2.3432617c3.1240234-3.1240234 8.1894531-3.1240234 11.3134766 0 3.1245117 3.1240234 3.1245117 8.1894531 0 11.3134766l-8 8c-1.5620117 1.5620117-3.609375 2.3432617-5.6567383 2.3432617z" fill="#f0615f"/><path d="m8 296h144v64h-144z" fill="#014259"/><path d="m16 96v16.0000153c0 8.8365478 7.1634369 15.9999847 15.9999847 15.9999847h.0000153-.0000248c-13.2548199 0-23.9999752 10.7451477-23.9999752 23.9999695v16.0000305h40v-72z" fill="#ffec00"/><path d="m144 96v16.0000153c0 8.8365478-7.1634369 15.9999847-15.9999847 15.9999847h-.0000153.0000305c13.2548218 0 23.9999695 10.7451477 23.9999695 23.9999695v16.0000305h-40v-72z" fill="#ffec00"/><g fill="#fff599"><path d="m112 128v-32h16v16c0 8.8399658-7.1599731 16-16 16z"/><path d="m136 152v16h-24v-40c6.6199951 0 12.6199951 2.6900024 16.9699707 7.0299683 4.3400269 4.3500366 7.0300293 10.3500366 7.0300293 16.9700317z"/><path d="m128 96v16c0 8.8399658-7.1599731 16-16 16v-32z"/><path d="m136 152v16h-24v-40c6.6199951 0 12.6199951 2.6900024 16.9699707 7.0299683 4.3400269 4.3500366 7.0300293 10.3500366 7.0300293 16.9700317z"/><path d="m32 96v16c0 8.8399658 7.1599731 16 16 16v-32z"/><path d="m24 152v16h24v-40c-6.6199951 0-12.6199951 2.6900024-16.9699707 7.0299683-4.3400269 4.3500366-7.0300293 10.3500366-7.0300293 16.9700317z"/></g><path d="m48.0000305 200h-8.0000305v-32h40v.0000305c0 17.6730957-14.3268738 31.9999695-31.9999695 31.9999695z" fill="#ffec00"/><path d="m111.9999695 200h8.0000305v-32h-40v.0000305c0 17.6730957 14.3268738 31.9999695 31.9999695 31.9999695z" fill="#ffec00"/><path d="m120 184v16h-8c-8.8400269 0-16.8400269-3.5800171-22.6300049-9.3699951-5.789978-5.7900391-9.3699951-13.7900391-9.3699951-22.6300049h4.2800293c1.3999634 2.4299927 3.1199951 4.6599731 5.0899658 6.6300049 5.789978 5.789978 13.789978 9.3699951 22.6300049 9.3699951z" fill="#f98800"/><path d="m40 184v16h8c8.8400269 0 16.8400269-3.5800171 22.6300049-9.3699951 5.789978-5.7900391 9.3699951-13.7900391 9.3699951-22.6300049h-4.2800293c-1.3999634 2.4299927-3.1199951 4.6599731-5.0899658 6.6300049-5.789978 5.789978-13.789978 9.3699951-22.6300049 9.3699951z" fill="#f98800"/><path d="m216 280h112v16h-112z" fill="#00587e"/><path d="m184 248h112v16h-112z" fill="#00587e"/><path d="m392 280h112v16h-112z" fill="#00a8e7"/><path d="m360 248h112v16h-112z" fill="#00a8e7"/><path d="m8 96h144l-8-8v-32l-8-.0000114v-.0000648c0-22.0913468-17.908577-39.9999238-39.9999237-39.9999238h-.0001068l-7.9999542-8h-15.9999848l-8.0000648 8h-.000042c-22.0913467 0-39.9999237 17.908577-39.9999237 39.9999237v.0000496l-8 .0000153v32.0000114z" fill="#ffec00"/><path d="m152 96h-32l-8-8v-32h-8c0-11.0400391-4.4799805-21.0400391-11.7199707-28.2800293s-17.2400513-11.7199707-28.2800293-11.7199707l8-8h16l8 8c11.0400391 0 21.0400391 4.4799805 28.2800293 11.7199707s11.7199707 17.2399902 11.7199707 28.2800293h8v32z" fill="#fcc200"/><path d="m64 48c-4.418457 0-8-3.581543-8-8v-24c0-4.418457 3.581543-8 8-8s8 3.581543 8 8v24c0 4.418457-3.581543 8-8 8z" fill="#fcc200"/><path d="m96 48c-4.418457 0-8-3.581543-8-8v-24c0-4.418457 3.581543-8 8-8s8 3.581543 8 8v24c0 4.418457-3.581543 8-8 8z" fill="#f98800"/><path d="m144 88-64-32-64 32-8 8h144z" fill="#fcc200"/><path d="m16 88 64-32 64 32z" fill="#fff599"/><path d="m40 248h112v16h-112z" fill="#80daf9"/><path d="m8 280h112v16h-112z" fill="#80daf9"/><path d="m112 96v72h-64v-16h32c8.8365555 0 16-7.1634369 16-16v-40z" fill="#eaaa94"/><path d="m120 296h32v64h-32z" fill="#286c84"/><path d="m48 360h16v144h-16z" fill="#eaaa94"/><path d="m136 360h16v144h-16z" fill="#eaaa94"/><path d="m24 472h24c8.8365555 0 16 7.1634521 16 16v16h-56v-16c0-8.8365479 7.1634436-16 16-16z" fill="#683b11"/><path d="m112 472h24c8.8365631 0 16 7.1634521 16 16v16h-56v-16c0-8.8365479 7.1634445-16 16-16z" fill="#683b11"/><path d="m224 392h16v112h-16z" fill="#572d0c"/><path d="m312 296h16v208h-16z" fill="#572d0c"/><path d="m400 344h16v160h-16z" fill="#286c84"/><path d="m488 296h16v208h-16z" fill="#286c84"/><path d="m224 472h-24c-8.8365631 0-16 7.1634521-16 16v16h56v-16c0-8.8365479-7.1634369-16-16-16z" fill="#914d1a"/><path d="m312 472h-24c-8.8365479 0-16 7.1634521-16 16v16h56v-16c0-8.8365479-7.1634521-16-16-16z" fill="#914d1a"/><path d="m400 472h-24c-8.8365479 0-16 7.1634521-16 16v16h56v-16c0-8.8365479-7.1634521-16-16-16z" fill="#aedef8"/><path d="m488 472h-24c-8.8365479 0-16 7.1634521-16 16v16h56v-16c0-8.8365479-7.1634521-16-16-16z" fill="#aedef8"/></svg>