<svg height="512pt" viewBox="-92 0 512 512" width="512pt" xmlns="http://www.w3.org/2000/svg"><path d="m0 57.140625h327.300781v379.132813h-327.300781zm0 0" fill="#141b73"/><path d="m0 57.140625h163.648438v379.132813h-163.648438zm0 0" fill="#004199"/><path d="m327.296875 32.625c0-17.988281-14.632813-32.625-32.625-32.625h-262.046875c-17.988281 0-32.625 14.636719-32.625 32.625v35.824219h327.300781v-35.824219zm0 0" fill="#0059b2"/><path d="m32.625 0c-17.988281 0-32.625 14.636719-32.625 32.625v35.824219h163.648438v-68.449219zm0 0" fill="#176ee5"/><path d="m173.675781 297.414062h-20.054687c-38.152344 0-69.082032 30.929688-69.082032 69.082032v64.21875h158.21875v-64.21875c0-38.152344-30.929687-69.082032-69.082031-69.082032zm0 0" fill="#0c6"/><path d="m163.648438 202.566406c-30.117188 0-54.617188 24.503906-54.617188 54.621094s24.5 54.617188 54.617188 54.617188c30.117187 0 54.621093-24.5 54.621093-54.617188s-24.503906-54.621094-54.621093-54.621094zm0 0" fill="#ffd399"/><path d="m153.625 297.414062c-38.152344 0-69.082031 30.929688-69.082031 69.082032v64.21875h79.105469v-133.300782zm0 0" fill="#00ff80"/><path d="m163.648438 202.566406c-30.117188 0-54.617188 24.503906-54.617188 54.621094s24.5 54.617188 54.617188 54.617188zm0 0" fill="#ffe1bb"/><path d="m267.839844 101.554688h-52.925782c-8.285156 0-15 6.714843-15 15v64.804687c0 8.28125 6.714844 15 15 15h52.925782c8.285156 0 15-6.71875 15-15v-64.804687c0-8.285157-6.714844-15-15-15zm0 0" fill="#0059b2"/><path d="m214.914062 101.554688c-8.28125 0-15 6.714843-15 15v64.804687c0 8.28125 6.71875 15 15 15h27.84375v-94.804687zm0 0" fill="#176ee5"/><path d="m246.234375 150.109375h-6.957031c-13.214844 0-23.96875 10.75-23.96875 23.96875v17.074219c0 2.875 2.332031 5.203125 5.207031 5.203125h44.484375c2.871094 0 5.203125-2.328125 5.203125-5.203125v-17.074219c0-13.21875-10.753906-23.96875-23.96875-23.96875zm0 0" fill="#cc0702"/><path d="m239.277344 150.109375c-13.214844 0-23.96875 10.75-23.96875 23.96875v17.074219c0 2.875 2.332031 5.203125 5.207031 5.203125h22.242187v-46.246094zm0 0" fill="#ff2a00"/><path d="m242.757812 118.789062c-10.449218 0-18.953124 8.5-18.953124 18.949219s8.5 18.953125 18.953124 18.953125c10.449219 0 18.949219-8.503906 18.949219-18.953125s-8.5-18.949219-18.949219-18.949219zm0 0" fill="#ffd399"/><path d="m223.804688 137.738281c0 10.449219 8.503906 18.949219 18.953124 18.949219v-37.898438c-10.449218 0-18.953124 8.5-18.953124 18.949219zm0 0" fill="#ffe1bb"/><path d="m0 424.964844v54.410156c0 17.988281 14.636719 32.625 32.625 32.625h262.046875c17.992187 0 32.628906-14.636719 32.628906-32.625v-54.410156zm0 0" fill="#0059b2"/><path d="m0 479.375c0 17.988281 14.636719 32.625 32.625 32.625h131.023438v-87.035156h-163.648438zm0 0" fill="#176ee5"/><path d="m178.777344 461.042969c0-8.351563-6.773438-15.117188-15.128906-15.117188-8.355469 0-15.128907 6.765625-15.128907 15.117188 0 8.347656 6.773438 15.117187 15.128907 15.117187 8.355468 0 15.128906-6.769531 15.128906-15.117187zm0 0" fill="#141b73"/><path d="m148.519531 461.042969c0 8.347656 6.773438 15.117187 15.128907 15.117187v-30.234375c-8.355469 0-15.128907 6.765625-15.128907 15.117188zm0 0" fill="#004199"/></svg>